<svg width="256" height="256" viewBox="0 0 256 256" fill="none" xmlns="http://www.w3.org/2000/svg">
<path d="M239.2 120.2C235.79 104.09 227.24 92.4402 211.08 84.6502C221.84 65.1202 225.94 46.2202 223.11 18.9402C222.84 16.7602 222.08 16.3702 220.23 16.8602C184.51 26.7202 158.11 36.6902 138.26 67.4402C130.63 66.6902 123.77 66.7002 116.81 67.4402C101.75 41.0402 75.1295 26.1602 33.8395 16.8602C32.7795 16.6102 32.1295 17.3902 31.9395 18.7402C28.7395 40.9702 31.2095 59.7602 43.9395 83.7202C29.6095 92.3102 20.1395 102.04 16.3895 119.63C5.92953 124.34 3.01953 134.89 3.01953 150.44C3.01953 169.79 11.1695 182.29 27.7395 182.29C30.3395 182.29 32.7095 182.16 34.8895 181.81C40.5295 194.84 48.1595 203.14 58.9295 210.77C57.4895 219.19 54.0295 225.21 48.6795 233.14C47.6395 234.74 47.7695 236.92 49.9495 237.37C66.2095 240.34 82.7895 236.15 97.8495 226.14C107.71 228.44 117.18 228.96 127.74 228.77C160.31 228.11 189.51 219.84 205.63 205.95C214.49 197.22 222.93 192.21 234.74 181.04C248.63 177.46 253.64 168.47 253.64 150.44C253.64 135.69 249.79 124.94 239.2 120.2ZM232.3 117.64C228.58 117.36 225.49 117.79 222.24 118.74C217.94 108.19 212.37 102.69 201.7 97.0002C204.8 93.7502 206.83 90.8402 208.73 88.3502C220.81 95.1402 229.13 104.29 232.3 117.64ZM216.58 24.9402C220.84 65.8102 200.63 110.07 139.28 119.47C149.24 96.1702 164.14 74.4002 190.37 52.7602C170.61 62.2402 147.23 86.1502 130.94 120.13C133.74 77.1102 155.34 40.1402 216.58 24.9402ZM135.14 73.3102C131.6 80.1002 129.24 86.7502 127.48 93.6702C125.45 86.6202 123.27 80.1702 120.33 73.4402C125.33 73.0602 129.95 72.9902 135.14 73.3102ZM38.1995 25.3202C92.7395 38.2202 121.94 62.2402 124.77 120.13C110.37 90.0402 90.7395 66.2602 64.9295 52.9502C88.2395 72.9902 104.43 95.2702 114.39 119.24C58.7795 110.76 34.4795 74.7902 38.1995 25.3202ZM47.6395 88.7402C49.8195 92.0502 51.3895 93.9402 53.9695 97.0702C44.0095 102.69 38.7495 108.38 33.8695 117.83C30.7395 117.11 27.9695 116.85 23.5395 117.57C27.2595 104.67 34.8895 96.0402 47.6395 88.7402ZM9.46953 150.44C9.46953 134.07 13.9595 124 27.1295 124C29.4295 124 31.4495 124.46 33.4095 125.14C30.8395 135.69 30.0595 143.45 30.0595 153.31C30.0595 160.88 31.0995 167.44 32.7095 174.74C31.2295 175 29.6295 175.07 27.7395 175.07C15.0095 175.07 9.46953 166.27 9.46953 150.44ZM187.17 202.17C187.56 199.99 187.76 197.75 187.5 196.14C201.02 192.8 212.76 185.84 223.66 175.23C226.86 172.74 229.36 175.65 229.36 178.79C218.8 193.26 203.87 198.95 187.17 202.17ZM181.76 202.04C178.11 206.47 174.08 207.78 169.07 207.78C163.99 207.78 162.48 204.07 162.48 201.78C162.48 197.09 165.81 195.16 173.5 194.64C179.99 194.19 182.53 195.75 181.76 202.04ZM184.4 191.16C180.65 188.67 177 188.8 173.7 189.32C163.67 190.77 156.54 194.19 156.54 202.17C156.54 209.36 161.36 213.29 168.36 213.29C175.16 213.29 180.12 210.74 184.08 206.73C189.27 205.95 193.96 204.84 197.55 203.94C182.27 215.17 159.06 221.66 128.16 222.12C116.81 222.31 107.81 220.94 97.4895 218.64C86.9295 227.06 74.7095 232.07 60.0795 232.07C59.0295 232.07 58.3395 231.94 57.7195 231.81C63.1995 223.74 65.7695 216.85 66.2295 208.16C47.3395 196.77 35.9895 183.94 35.9895 157.2C36.5095 131.26 40.4295 114.5 59.6195 103.64C76.2595 118.65 100.81 128.75 127.51 128.75C152.94 128.75 178.88 117.64 195.78 103.38C213.21 112.11 221.16 126.14 219.72 173.39C209.26 183.94 197.29 188.93 184.4 191.16ZM235.56 173.84C233.8 170.09 230.8 168.27 227.27 168.79C228.48 156.09 227.76 143.06 224.11 125.27C226.68 124.36 228.97 123.84 231.94 123.84C243.29 123.84 247.42 133.38 247.42 148.33C247.42 162.09 244.02 170.68 235.56 173.84Z" fill="#FAFFFE"/>
<path d="M90.4199 141.6C82.1099 141.6 76.9199 149.1 76.9199 155.12C76.9199 162.81 83.2199 168.3 90.2199 168.3C98.1099 168.3 103.62 160.84 103.62 154.82C103.62 147.5 97.3099 141.6 90.4199 141.6Z" fill="#FAFFFE" stroke="#DCE9F0" stroke-width="0.75" stroke-miterlimit="10"/>
<path d="M165.999 141.6C157.689 141.6 152.369 149.1 152.369 155.12C152.369 162.81 158.669 168.3 165.669 168.3C173.559 168.3 178.819 160.84 178.819 154.82C178.819 147.5 172.709 141.6 165.999 141.6Z" fill="#FAFFFE" stroke="#DCE9F0" stroke-width="0.75" stroke-miterlimit="10"/>
<path d="M137.8 166.1C134.15 169.75 131.58 170.9 127.76 170.9C123.95 170.9 121.18 169.3 118.61 166.39C116.31 164.09 113.88 166.65 114.79 169.75C117.19 175.13 123.13 177.68 128.09 177.68C134.85 177.68 140.05 172.7 141.32 168.91C142.3 166.1 139.66 164.41 137.8 166.1Z" fill="#FAFFFE" stroke="#DCE9F0" stroke-width="0.75" stroke-miterlimit="10"/>
</svg>
